<svg width="20" height="20" viewBox="0 0 20 20" fill="none" xmlns="http://www.w3.org/2000/svg">
<path d="M5 16C4.71667 16 4.47933 15.904 4.288 15.712C4.09667 15.52 4.00067 15.2827 4 15V13H17V4H19C19.2833 4 19.521 4.096 19.713 4.288C19.905 4.48 20.0007 4.71733 20 5V20L16 16H5ZM0 15V1C0 0.716667 0.0960001 0.479333 0.288 0.288C0.48 0.0966668 0.717333 0.000666667 1 0H14C14.2833 0 14.521 0.0960001 14.713 0.288C14.905 0.48 15.0007 0.717333 15 1V10C15 10.2833 14.904 10.521 14.712 10.713C14.52 10.905 14.2827 11.0007 14 11H4L0 15Z" fill="white"/>
</svg>
